<svg width="1200" height="760" viewBox="0 0 1200 760" fill="none" xmlns="http://www.w3.org/2000/svg">
  <rect width="1200" height="760" rx="26" fill="#F4F8FB"/>
  <rect x="34" y="34" width="1132" height="692" rx="24" fill="#FFFFFF" stroke="#D8E5EF" stroke-width="2"/>
  <text x="72" y="84" fill="#667D90" font-family="Arial, Helvetica, sans-serif" font-size="22">career signal map / graph-first portfolio</text>
  <text x="72" y="130" fill="#1F3345" font-family="Arial, Helvetica, sans-serif" font-size="44" font-weight="800">Sewon Kim — Knowledge Discovery Map</text>
  <text x="72" y="166" fill="#657D90" font-family="Arial, Helvetica, sans-serif" font-size="23">Node size + orbit distance + signal beads show portfolio-weighted importance.</text>
  <rect x="72" y="197" width="1056" height="54" rx="13" fill="#F8FBFE" stroke="#D8E5EF"/>
  <text x="98" y="232" fill="#91A6B8" font-family="Arial, Helvetica, sans-serif" font-size="24">search nodes, skills, systems...</text>
  <circle cx="600" cy="430" r="150" stroke="#DCE8F1" stroke-width="2" stroke-dasharray="7 11" fill="none"/>
  <circle cx="600" cy="430" r="250" stroke="#DCE8F1" stroke-width="2" stroke-dasharray="7 11" fill="none"/>
  <circle cx="600" cy="430" r="335" stroke="#DCE8F1" stroke-width="2" stroke-dasharray="7 11" fill="none"/>
  <text x="628" y="284" fill="#8AA0B0" font-family="Arial, Helvetica, sans-serif" font-size="15" letter-spacing="2">CORE SIGNAL</text>
  <text x="772" y="268" fill="#8AA0B0" font-family="Arial, Helvetica, sans-serif" font-size="15" letter-spacing="2">SYSTEMS</text>
  <text x="870" y="172" fill="#8AA0B0" font-family="Arial, Helvetica, sans-serif" font-size="15" letter-spacing="2">OUTPUTS / CONTEXT</text>
  <g stroke="#B7CDDD" stroke-width="2" opacity="0.75">
    <line x1="600" y1="430" x2="815" y2="350"/><line x1="600" y1="430" x2="405" y2="350"/><line x1="600" y1="430" x2="735" y2="250"/><line x1="600" y1="430" x2="470" y2="250"/><line x1="600" y1="430" x2="430" y2="605"/><line x1="600" y1="430" x2="760" y2="605"/><line x1="405" y1="350" x2="320" y2="430"/><line x1="815" y1="350" x2="910" y2="470"/><line x1="735" y1="250" x2="880" y2="185"/><line x1="470" y1="250" x2="595" y2="185"/>
  </g>
  <g fill="#0D4D89" opacity="0.36">
    <circle cx="652" cy="411" r="4"/><circle cx="704" cy="391" r="4"/><circle cx="756" cy="372" r="4"/>
    <circle cx="551" cy="410" r="4"/><circle cx="503" cy="390" r="4"/><circle cx="454" cy="370" r="4"/>
    <circle cx="634" cy="385" r="4"/><circle cx="668" cy="340" r="4"/><circle cx="701" cy="295" r="4"/>
    <circle cx="566" cy="383" r="4"/><circle cx="535" cy="340" r="4"/><circle cx="502" cy="294" r="4"/>
  </g>
  <style>.label{font:800 20px Arial,Helvetica,sans-serif;fill:#17364F;paint-order:stroke;stroke:#fff;stroke-width:7px;stroke-linejoin:round}.sub{font:16px Arial,Helvetica,sans-serif;fill:#5F788C;paint-order:stroke;stroke:#fff;stroke-width:6px;stroke-linejoin:round}.inside{font:900 18px Arial,Helvetica,sans-serif;fill:white}.insideSmall{font:900 13px Arial,Helvetica,sans-serif;fill:white}</style>
  <g>
    <circle cx="600" cy="430" r="78" fill="#0D4D89" opacity="0.14"/><circle cx="600" cy="430" r="58" fill="#0D4D89" stroke="white" stroke-width="4"/><text x="600" y="425" text-anchor="middle" class="inside">Sewon</text><text x="600" y="449" text-anchor="middle" class="inside">Kim</text>
    <circle cx="815" cy="350" r="55" fill="#EE9B2C" opacity="0.16"/><circle cx="815" cy="350" r="43" fill="#EE9B2C" stroke="white" stroke-width="4"/><text x="815" y="347" text-anchor="middle" class="insideSmall">Graph</text><text x="815" y="364" text-anchor="middle" class="insideSmall">Visualization</text><text x="872" y="344" class="label">Graph Visualization</text><text x="872" y="371" class="sub">main career direction</text>
    <circle cx="405" cy="350" r="53" fill="#EE9B2C" opacity="0.16"/><circle cx="405" cy="350" r="41" fill="#EE9B2C" stroke="white" stroke-width="4"/><text x="405" y="347" text-anchor="middle" class="insideSmall">Knowledge</text><text x="405" y="364" text-anchor="middle" class="insideSmall">Discovery</text><text x="345" y="344" text-anchor="end" class="label">Knowledge Discovery</text><text x="345" y="371" text-anchor="end" class="sub">structure → insight</text>
    <circle cx="735" cy="250" r="50" fill="#5BA6D0" opacity="0.16"/><circle cx="735" cy="250" r="39" fill="#5BA6D0" stroke="white" stroke-width="4"/><text x="735" y="247" text-anchor="middle" class="insideSmall">ATIO</text><text x="735" y="264" text-anchor="middle" class="insideSmall">KB</text><text x="792" y="244" class="label">ATIO Knowledge Base</text><text x="792" y="271" class="sub">current FAO platform work</text>
    <circle cx="470" cy="250" r="50" fill="#7A62C5" opacity="0.16"/><circle cx="470" cy="250" r="39" fill="#7A62C5" stroke="white" stroke-width="4"/><text x="470" y="255" text-anchor="middle" class="insideSmall">KG-RAG</text><text x="410" y="244" text-anchor="end" class="label">KG-RAG Research</text><text x="410" y="271" text-anchor="end" class="sub">retrieval &amp; reasoning</text>
    <circle cx="320" cy="430" r="45" fill="#7A62C5" opacity="0.16"/><circle cx="320" cy="430" r="35" fill="#7A62C5" stroke="white" stroke-width="4"/><text x="320" y="427" text-anchor="middle" class="insideSmall">Knowledge</text><text x="320" y="444" text-anchor="middle" class="insideSmall">Graphs</text><text x="252" y="426" text-anchor="end" class="label">Knowledge Graphs</text><text x="252" y="453" text-anchor="end" class="sub">semantic structure</text>
    <circle cx="910" cy="470" r="40" fill="#EE9B2C" opacity="0.16"/><circle cx="910" cy="470" r="30" fill="#EE9B2C" stroke="white" stroke-width="4"/><text x="910" y="467" text-anchor="middle" class="insideSmall">UX</text><text x="910" y="484" text-anchor="middle" class="insideSmall">Viz</text><text x="960" y="466" class="label">UX &amp; Data Visualization</text><text x="960" y="493" class="sub">behavior flows</text>
    <circle cx="430" cy="605" r="44" fill="#D65F61" opacity="0.16"/><circle cx="430" cy="605" r="34" fill="#D65F61" stroke="white" stroke-width="4"/><text x="430" y="602" text-anchor="middle" class="insideSmall">Computer</text><text x="430" y="619" text-anchor="middle" class="insideSmall">Vision</text><text x="486" y="599" class="label">Computer Vision</text><text x="486" y="626" class="sub">DETR / CLIP inspection</text>
    <circle cx="760" cy="605" r="42" fill="#56A56E" opacity="0.16"/><circle cx="760" cy="605" r="32" fill="#56A56E" stroke="white" stroke-width="4"/><text x="760" y="610" text-anchor="middle" class="insideSmall">WaggleNet</text><text x="813" y="599" class="label">WaggleNet</text><text x="813" y="626" class="sub">field-tested IoT monitoring</text>
    <circle cx="595" cy="185" r="44" fill="#7A62C5" opacity="0.16"/><circle cx="595" cy="185" r="35" fill="#7A62C5" stroke="white" stroke-width="4"/><text x="595" y="182" text-anchor="middle" class="insideSmall">Retrieval</text><text x="595" y="199" text-anchor="middle" class="insideSmall">RAG</text><text x="595" y="135" text-anchor="middle" class="label">Retrieval / RAG</text><text x="595" y="162" text-anchor="middle" class="sub">grounding &amp; multi-hop QA</text>
    <circle cx="880" cy="185" r="35" fill="#789C39" opacity="0.18"/><circle cx="880" cy="185" r="27" fill="#789C39" stroke="white" stroke-width="4"/><text x="880" y="181" text-anchor="middle" class="insideSmall">FAO</text><text x="880" y="198" text-anchor="middle" class="insideSmall">OIN</text><text x="930" y="181" class="label">FAO Innovation</text><text x="930" y="208" class="sub">current institution</text>
  </g>
</svg>